<svg width="214" height="46" viewBox="0 0 214 46" fill="none" xmlns="http://www.w3.org/2000/svg">
<path d="M21.4337 20.5321L20.6495 27.3496C18.7448 28.3722 16.504 28.8267 14.0392 28.8267C10.1178 28.8267 6.98073 27.5768 4.51588 25.1907C2.05103 22.691 0.818604 19.5095 0.818604 15.6463C0.818604 11.1013 2.27511 7.35168 5.07607 4.39744C7.87704 1.55683 11.4623 0.0797119 15.9438 0.0797119C18.8568 0.0797119 21.4337 0.761456 23.6745 2.01133L22.8902 8.71517C21.0976 6.89718 18.8568 5.98818 16.0559 5.98818C13.3669 5.98818 11.2382 6.89718 9.66966 8.60155C7.98908 10.3059 7.20481 12.4648 7.20481 15.0781C7.20481 17.4643 7.87704 19.2823 9.33354 20.7594C10.79 22.2365 12.6947 22.9182 15.0475 22.9182C17.4003 22.9182 19.5291 22.1229 21.4337 20.5321Z" fill="url(#paint0_linear_9:1547)"/>
<path d="M43.1693 28.2585L41.8248 23.0318H31.6293L29.0524 28.2585H22.3301L36.671 0.761353H42.497L49.7796 28.2585H43.1693ZM33.9821 18.2595H40.7044L38.4637 8.60144L33.9821 18.2595Z" fill="url(#paint1_linear_9:1547)"/>
<path d="M48.2109 0.761353H54.7092L59.4148 18.3731L68.3779 0.761353H75.3243L60.6472 28.2585H56.3898L48.2109 0.761353Z" fill="url(#paint2_linear_9:1547)"/>
<path d="M93.5865 0.761353L92.9143 6.1017H84.0632L83.391 11.4421H91.906L91.2337 16.7824H82.7188L81.9345 22.9181H91.0096L90.3374 28.2585H75.3242L78.6854 0.761353H93.5865Z" fill="url(#paint3_linear_9:1547)"/>
<path d="M96.1636 0.761353H102.662L107.367 18.3731L116.331 0.761353H123.277L108.6 28.2585H104.342L96.1636 0.761353Z" fill="url(#paint4_linear_9:1547)"/>
<path d="M137.282 0.193481C141.539 0.193481 144.9 1.44335 147.365 3.82946C149.942 6.3292 151.174 9.62431 151.174 13.6012C151.174 15.6464 150.838 17.6917 150.166 19.6233C149.494 21.5549 148.373 23.2593 147.029 24.7364C144.34 27.577 140.531 28.9405 135.825 28.9405C131.456 28.9405 128.094 27.6906 125.518 25.0772C122.941 22.4639 121.708 19.2824 121.708 15.4192C121.708 10.9878 123.165 7.2382 126.19 4.39758C128.991 1.55697 132.8 0.193481 137.282 0.193481ZM137.058 5.98833C134.369 5.98833 132.24 6.89733 130.559 8.6017C128.879 10.3061 128.094 12.4649 128.094 14.9647C128.094 17.3508 128.879 19.2824 130.335 20.7595C131.792 22.3503 133.808 23.032 136.273 23.032C138.85 23.032 140.867 22.2366 142.323 20.6459C144.004 18.9415 144.788 16.669 144.788 13.8284C144.788 11.4423 144.116 9.51069 142.659 8.03357C141.203 6.7837 139.41 5.98833 137.058 5.98833Z" fill="url(#paint5_linear_9:1547)"/>
<path d="M166.972 0.761353H175.487C177.055 0.761353 178.4 0.874979 179.52 1.21585C180.641 1.55673 181.761 2.23847 182.657 3.26109C184.002 4.62458 184.562 6.5562 184.562 8.82869C184.562 11.3284 183.778 13.3737 182.321 14.8508C181.089 15.987 179.744 16.7824 178.064 17.1233L185.01 28.2585H177.728L171.229 17.4641L169.885 28.2585H163.611L166.972 0.761353ZM172.686 5.76083L171.79 13.26H173.358C174.927 13.26 176.159 12.9192 177.055 12.2374C177.952 11.5557 178.4 10.4194 178.4 9.05594C178.4 7.80607 177.952 6.89708 177.055 6.32895C176.383 5.87446 175.263 5.6472 173.694 5.6472H172.686V5.76083Z" fill="url(#paint6_linear_9:1547)"/>
<path d="M190.164 0.761353H196.438L194.645 15.7598C194.533 16.6688 194.421 17.4641 194.421 18.1459C194.421 19.7366 194.757 20.8729 195.654 21.6683C196.55 22.4636 197.67 22.9181 199.239 22.9181C201.031 22.9181 202.376 22.4636 203.272 21.5546C204.169 20.6456 204.729 18.9413 205.065 16.3279L206.969 0.761353H213.244L211.339 16.7824C211.115 18.2595 211.003 19.3958 210.891 20.1911C210.779 20.9865 210.443 21.8955 209.995 23.0318C209.546 24.168 208.874 25.1906 208.202 25.8724C206.297 27.804 203.384 28.8266 199.351 28.8266C195.542 28.8266 192.629 27.9176 190.724 25.986C189.155 24.3952 188.371 22.2364 188.371 19.623C188.371 18.714 188.483 17.2369 188.707 15.3053L190.164 0.761353Z" fill="url(#paint7_linear_9:1547)"/>
<path d="M105.463 36.7804H107.144L106.807 39.2801L109.384 36.7804H111.625L108.152 39.9619L110.953 44.0524H108.936L106.919 41.0981L106.583 41.3254L106.247 44.0524H104.567L105.463 36.7804Z" fill="#000093"/>
<path d="M119.132 36.7806L118.235 43.939H116.555L117.227 38.2577H115.098L114.762 40.8711C114.65 41.212 114.65 41.5529 114.65 41.6665C114.65 41.7801 114.538 42.121 114.426 42.3482C114.314 42.5755 114.09 42.9163 113.866 43.1436C113.193 43.7117 112.409 44.0526 111.401 43.8253L111.625 42.3482C112.073 42.4618 112.521 42.3482 112.745 42.0073C112.969 41.7801 113.081 41.4392 113.193 40.8711L113.754 36.667H119.132V36.7806Z" fill="#000093"/>
<path d="M122.493 39.394H123.613C123.837 38.5986 124.174 37.9168 124.846 37.4623C125.518 36.8942 126.414 36.5533 127.423 36.5533C128.431 36.5533 129.215 36.8942 129.775 37.4623C130.448 38.0305 130.784 38.9395 130.784 39.9621C130.784 41.2119 130.336 42.2346 129.663 43.0299C128.879 43.8253 127.983 44.1662 126.75 44.1662C125.518 44.1662 124.622 43.8253 124.062 43.0299C123.613 42.4618 123.389 41.7801 123.389 40.9847H122.269L121.933 43.9389H120.252L121.148 36.7806H122.829L122.493 39.394ZM127.311 38.0305C126.75 38.0305 126.19 38.2577 125.742 38.5986C125.518 38.8258 125.294 39.1667 125.182 39.5076C125.07 39.8485 124.958 40.303 124.958 40.6438C124.958 41.2119 125.07 41.6664 125.406 42.0073C125.742 42.3482 126.19 42.5754 126.75 42.5754C127.423 42.5754 127.871 42.3482 128.319 41.8937C128.767 41.3256 129.103 40.6438 129.103 39.8485C129.103 39.2803 128.879 38.8258 128.543 38.485C128.319 38.2577 127.871 38.0305 127.311 38.0305Z" fill="#000093"/>
<path d="M135.489 43.939L135.825 41.0984C135.377 41.212 134.929 41.3256 134.481 41.3256C133.697 41.3256 133.136 41.0984 132.688 40.7575C132.24 40.4166 132.016 39.9621 132.016 39.394C132.016 39.1667 132.016 38.8259 132.128 38.485L132.352 36.667H134.033L133.809 38.3714C133.809 38.5986 133.809 38.8259 133.809 38.9395C133.809 39.2804 133.921 39.5076 134.145 39.6212C134.369 39.7349 134.705 39.8485 135.153 39.8485C135.489 39.8485 135.825 39.7349 136.162 39.6212L136.498 36.667H138.178L137.282 43.8253H135.489V43.939Z" fill="#000093"/>
<path d="M143.22 36.7804H144.901L144.565 39.2801L147.141 36.7804H149.382L145.909 39.9619L148.71 44.0524H146.693L144.677 41.0981L144.34 41.3254L144.004 44.0524H142.324L143.22 36.7804Z" fill="#000093"/>
<path d="M159.017 37.2351L158.793 39.0531C158.457 38.7123 158.233 38.5986 157.897 38.3714C157.561 38.1441 157.225 38.1441 156.889 38.1441C156.104 38.1441 155.544 38.3714 155.096 38.8259C154.648 39.2804 154.424 39.8485 154.424 40.6439C154.424 41.3256 154.648 41.7801 154.984 42.2346C155.32 42.5755 155.88 42.8027 156.44 42.8027C156.889 42.8027 157.225 42.6891 157.561 42.5755C157.897 42.3482 158.233 42.121 158.345 42.0074L158.121 43.8254C157.673 44.1662 156.889 44.2799 155.992 44.2799C154.984 44.2799 154.2 43.939 153.639 43.3709C152.967 42.6891 152.631 41.8937 152.631 40.7575C152.631 39.6213 152.967 38.5986 153.751 37.8033C154.536 37.0079 155.432 36.667 156.664 36.667C157.673 36.5534 158.457 36.7806 159.017 37.2351Z" fill="#000093"/>
<path d="M161.034 36.7804H162.715L162.378 39.2801L164.955 36.7804H167.196L163.723 39.9619L166.524 44.0524H164.507L162.491 41.0981L162.154 41.3254L161.818 44.0524H160.138L161.034 36.7804Z" fill="#000093"/>
<path d="M168.653 36.7805H170.333L169.773 40.871L175.151 36.0988L174.255 43.9389H172.574L173.134 39.7347L167.757 44.507L168.653 36.7805Z" fill="#000093"/>
<path d="M178.064 36.7804H183.33L182.658 42.4616H183.778L183.33 45.984H181.873L182.097 43.9388H177.168L176.944 45.984H175.487L175.935 42.4616C176.383 42.4616 176.719 42.2344 177.056 41.8935C177.504 41.439 177.728 40.7573 177.84 39.621L178.064 36.7804ZM181.089 42.4616L181.649 38.3711H179.52L179.296 40.3028C179.184 40.8709 179.072 41.3254 178.96 41.6663C178.736 42.0071 178.512 42.2344 178.288 42.5753H181.089V42.4616Z" fill="#000093"/>
<path d="M185.907 36.7804H187.587L187.251 39.2801L189.828 36.7804H192.069L188.596 39.9619L191.397 44.0524H189.38L187.363 41.0981L187.027 41.2118L186.691 43.9387H185.01L185.907 36.7804Z" fill="#000093"/>
<path d="M198.343 37.5758L198.455 36.7804H200.135L199.239 43.9388H197.559L197.671 43.1434C197.334 43.4843 196.998 43.7116 196.774 43.8252C196.438 44.0524 195.99 44.0524 195.43 44.0524C194.646 44.0524 193.973 43.8252 193.413 43.2571C192.741 42.5753 192.405 41.7799 192.405 40.6437C192.405 39.3938 192.853 38.2576 193.637 37.4622C194.309 36.7804 195.206 36.4396 196.214 36.4396C196.662 36.4396 197.11 36.5532 197.559 36.7804C197.783 37.0077 198.119 37.3486 198.343 37.5758ZM196.326 38.0303C195.766 38.0303 195.318 38.2576 194.87 38.5984C194.309 39.1666 194.085 39.7347 194.085 40.6437C194.085 41.2118 194.309 41.7799 194.646 42.1208C194.982 42.4617 195.318 42.6889 195.878 42.6889C196.438 42.6889 196.998 42.4617 197.447 42.0072C197.895 41.4391 198.119 40.8709 198.119 40.0756C198.119 39.3938 197.895 38.9393 197.559 38.5984C197.222 38.2576 196.886 38.0303 196.326 38.0303Z" fill="#000093"/>
<path d="M200.696 43.9389L203.385 36.0988L205.626 41.5527L209.211 36.0988L209.995 43.9389H208.314L208.09 40.3029L205.289 44.3934L203.497 40.3029L202.376 43.9389H200.696Z" fill="#000093"/>
<path d="M9.10936 44.3935C11.2132 44.3935 12.9187 42.6638 12.9187 40.5302C12.9187 38.3966 11.2132 36.667 9.10936 36.667C7.00554 36.667 5.30005 38.3966 5.30005 40.5302C5.30005 42.6638 7.00554 44.3935 9.10936 44.3935Z" fill="#0047EE"/>
<path d="M23.3384 44.3934C25.4422 44.3934 27.1477 42.6637 27.1477 40.5301C27.1477 38.3965 25.4422 36.6669 23.3384 36.6669C21.2345 36.6669 19.5291 38.3965 19.5291 40.5301C19.5291 42.6637 21.2345 44.3934 23.3384 44.3934Z" fill="#0060F1"/>
<path d="M37.5671 44.3934C39.6709 44.3934 41.3764 42.6637 41.3764 40.5301C41.3764 38.3965 39.6709 36.6669 37.5671 36.6669C35.4633 36.6669 33.7578 38.3965 33.7578 40.5301C33.7578 42.6637 35.4633 44.3934 37.5671 44.3934Z" fill="#0079F5"/>
<path d="M51.6843 44.3934C53.7881 44.3934 55.4936 42.6637 55.4936 40.5301C55.4936 38.3965 53.7881 36.6669 51.6843 36.6669C49.5805 36.6669 47.875 38.3965 47.875 40.5301C47.875 42.6637 49.5805 44.3934 51.6843 44.3934Z" fill="#0091F8"/>
<path d="M65.9131 44.3934C68.0169 44.3934 69.7224 42.6637 69.7224 40.5301C69.7224 38.3965 68.0169 36.6669 65.9131 36.6669C63.8093 36.6669 62.1038 38.3965 62.1038 40.5301C62.1038 42.6637 63.8093 44.3934 65.9131 44.3934Z" fill="#00AAFC"/>
<path d="M80.03 44.3934C82.1338 44.3934 83.8393 42.6637 83.8393 40.5301C83.8393 38.3965 82.1338 36.6669 80.03 36.6669C77.9262 36.6669 76.2207 38.3965 76.2207 40.5301C76.2207 42.6637 77.9262 44.3934 80.03 44.3934Z" fill="#00C3FF"/>
<path d="M155.992 27.1222C157.787 27.1222 159.241 25.6469 159.241 23.8271C159.241 22.0072 157.787 20.532 155.992 20.532C154.198 20.532 152.743 22.0072 152.743 23.8271C152.743 25.6469 154.198 27.1222 155.992 27.1222Z" fill="#0000C4"/>
<defs>
<linearGradient id="paint0_linear_9:1547" x1="1.63044" y1="14.5262" x2="207.41" y2="14.5262" gradientUnits="userSpaceOnUse">
<stop stop-color="#00008D"/>
<stop offset="0.3351" stop-color="#0000C4"/>
<stop offset="1" stop-color="#3374FF"/>
</linearGradient>
<linearGradient id="paint1_linear_9:1547" x1="1.63048" y1="14.526" x2="207.41" y2="14.526" gradientUnits="userSpaceOnUse">
<stop stop-color="#00008D"/>
<stop offset="0.3351" stop-color="#0000C4"/>
<stop offset="1" stop-color="#3374FF"/>
</linearGradient>
<linearGradient id="paint2_linear_9:1547" x1="1.63041" y1="14.526" x2="207.41" y2="14.526" gradientUnits="userSpaceOnUse">
<stop stop-color="#00008D"/>
<stop offset="0.3351" stop-color="#0000C4"/>
<stop offset="1" stop-color="#3374FF"/>
</linearGradient>
<linearGradient id="paint3_linear_9:1547" x1="1.63029" y1="14.526" x2="207.41" y2="14.526" gradientUnits="userSpaceOnUse">
<stop stop-color="#00008D"/>
<stop offset="0.3351" stop-color="#0000C4"/>
<stop offset="1" stop-color="#3374FF"/>
</linearGradient>
<linearGradient id="paint4_linear_9:1547" x1="1.63039" y1="14.526" x2="207.41" y2="14.526" gradientUnits="userSpaceOnUse">
<stop stop-color="#00008D"/>
<stop offset="0.3351" stop-color="#0000C4"/>
<stop offset="1" stop-color="#3374FF"/>
</linearGradient>
<linearGradient id="paint5_linear_9:1547" x1="1.63026" y1="14.5263" x2="207.41" y2="14.5263" gradientUnits="userSpaceOnUse">
<stop stop-color="#00008D"/>
<stop offset="0.3351" stop-color="#0000C4"/>
<stop offset="1" stop-color="#3374FF"/>
</linearGradient>
<linearGradient id="paint6_linear_9:1547" x1="1.63073" y1="14.526" x2="207.41" y2="14.526" gradientUnits="userSpaceOnUse">
<stop stop-color="#00008D"/>
<stop offset="0.3351" stop-color="#0000C4"/>
<stop offset="1" stop-color="#3374FF"/>
</linearGradient>
<linearGradient id="paint7_linear_9:1547" x1="1.6305" y1="14.835" x2="207.41" y2="14.835" gradientUnits="userSpaceOnUse">
<stop stop-color="#00008D"/>
<stop offset="0.3351" stop-color="#0000C4"/>
<stop offset="1" stop-color="#3374FF"/>
</linearGradient>
</defs>
</svg>
